<svg id="Capa_1" enable-background="new 0 0 512 512" height="60" viewBox="0 0 512 512" width="60" xmlns="http://www.w3.org/2000/svg"><g><path d="m331 219.5h113.5v195h-113.5z" fill="#ff7a3c"/><path d="m67.5 219.5h113.5v195h-113.5z" fill="#ff7a3c"/><path d="m361 219.5v135h-120l90-240v-15c0-8.28 6.72-15 15-15s15 6.72 15 15z" fill="#ff9a42"/><path d="m301 114.5-10.84-77.29c-2.38-17.04-16.96-29.71-34.16-29.71s-31.78 12.67-34.16 29.71l-10.84 77.29h-30v-15c0-8.28-6.72-15-15-15s-15 6.72-15 15v255l60 75h120v-315z" fill="#ffba48"/><path d="m256 324.5c-8.284 0-15 6.716-15 15v90h30s0-81.716 0-90-6.716-15-15-15z" fill="#963e1c"/><path d="m459.5 114.5v300l45-30v-225c0-24.85-20.15-45-45-45z" fill="#ffba48"/><path d="m52.5 114.5v300h45v-255c0-24.85-20.15-45-45-45z" fill="#ffba48"/><path d="m474.5 159.5v255h-60v-195-60c0-24.85 20.15-45 45-45 8.28 0 15 20.15 15 45z" fill="#ffd185"/><path d="m67.5 159.5v255l-60-30v-225c0-24.85 20.15-45 45-45 8.28 0 15 20.15 15 45z" fill="#ffd185"/><path d="m331 459.5-30 45h-90l-30-45z" fill="#ff7a3c"/><path d="m181 429.5h150v45h-150z" fill="#ff9a42"/><path d="m181 414.5h150v30h-150z" fill="#ff7a3c"/><path d="m504.5 384.5v120h-30l-45-60 45-60z" fill="#ffd185"/><path d="m7.5 384.5v120h143.5l30-120z" fill="#ffe8c2"/><path d="m331 384.5 30 120h113.5v-120z" fill="#ffe8c2"/><path d="m181 324.5c-16.57 0-30 13.43-30 30v150h60v-150c0-16.57-13.43-30-30-30z" fill="#ffd185"/><path d="m361 384.5v120h-30l-15-30v-120l15-30c16.57 0 30 13.43 30 30z" fill="#ffba48"/><path d="m301 354.5v150h30v-180c-16.57 0-30 13.43-30 30z" fill="#ffd185"/><g fill="#ffe8c2"><circle cx="256" cy="159.5" r="15"/><circle cx="196" cy="159.5" r="15"/><circle cx="316" cy="159.5" r="15"/><circle cx="256" cy="219.5" r="15"/><circle cx="196" cy="219.5" r="15"/><circle cx="316" cy="219.5" r="15"/><circle cx="256" cy="279.5" r="15"/><circle cx="196" cy="279.5" r="15"/><circle cx="316" cy="279.5" r="15"/><circle cx="52.5" cy="159.5" r="15"/><circle cx="52.5" cy="219.5" r="15"/><circle cx="52.5" cy="279.5" r="15"/><circle cx="459.5" cy="159.5" r="15"/><circle cx="459.5" cy="219.5" r="15"/><circle cx="459.5" cy="279.5" r="15"/></g><path d="m256 182c12.407 0 22.5-10.094 22.5-22.5s-10.093-22.5-22.5-22.5-22.5 10.094-22.5 22.5 10.093 22.5 22.5 22.5zm0-30c4.136 0 7.5 3.364 7.5 7.5s-3.364 7.5-7.5 7.5-7.5-3.364-7.5-7.5 3.364-7.5 7.5-7.5z"/><path d="m196 182c12.407 0 22.5-10.094 22.5-22.5s-10.093-22.5-22.5-22.5-22.5 10.094-22.5 22.5 10.093 22.5 22.5 22.5zm0-30c4.136 0 7.5 3.364 7.5 7.5s-3.364 7.5-7.5 7.5-7.5-3.364-7.5-7.5 3.364-7.5 7.5-7.5z"/><path d="m316 182c12.407 0 22.5-10.094 22.5-22.5s-10.093-22.5-22.5-22.5-22.5 10.094-22.5 22.5 10.093 22.5 22.5 22.5zm0-30c4.136 0 7.5 3.364 7.5 7.5s-3.364 7.5-7.5 7.5-7.5-3.364-7.5-7.5 3.364-7.5 7.5-7.5z"/><path d="m256 242c12.407 0 22.5-10.094 22.5-22.5s-10.093-22.5-22.5-22.5-22.5 10.094-22.5 22.5 10.093 22.5 22.5 22.5zm0-30c4.136 0 7.5 3.364 7.5 7.5s-3.364 7.5-7.5 7.5-7.5-3.364-7.5-7.5 3.364-7.5 7.5-7.5z"/><path d="m196 242c12.407 0 22.5-10.094 22.5-22.5s-10.093-22.5-22.5-22.5-22.5 10.094-22.5 22.5 10.093 22.5 22.5 22.5zm0-30c4.136 0 7.5 3.364 7.5 7.5s-3.364 7.5-7.5 7.5-7.5-3.364-7.5-7.5 3.364-7.5 7.5-7.5z"/><path d="m316 242c12.407 0 22.5-10.094 22.5-22.5s-10.093-22.5-22.5-22.5-22.5 10.094-22.5 22.5 10.093 22.5 22.5 22.5zm0-30c4.136 0 7.5 3.364 7.5 7.5s-3.364 7.5-7.5 7.5-7.5-3.364-7.5-7.5 3.364-7.5 7.5-7.5z"/><path d="m256 302c12.407 0 22.5-10.094 22.5-22.5s-10.093-22.5-22.5-22.5-22.5 10.094-22.5 22.5 10.093 22.5 22.5 22.5zm0-30c4.136 0 7.5 3.364 7.5 7.5s-3.364 7.5-7.5 7.5-7.5-3.364-7.5-7.5 3.364-7.5 7.5-7.5z"/><path d="m196 302c12.407 0 22.5-10.094 22.5-22.5s-10.093-22.5-22.5-22.5-22.5 10.094-22.5 22.5 10.093 22.5 22.5 22.5zm0-30c4.136 0 7.5 3.364 7.5 7.5s-3.364 7.5-7.5 7.5-7.5-3.364-7.5-7.5 3.364-7.5 7.5-7.5z"/><path d="m316 302c12.407 0 22.5-10.094 22.5-22.5s-10.093-22.5-22.5-22.5-22.5 10.094-22.5 22.5 10.093 22.5 22.5 22.5zm0-30c4.136 0 7.5 3.364 7.5 7.5s-3.364 7.5-7.5 7.5-7.5-3.364-7.5-7.5 3.364-7.5 7.5-7.5z"/><path d="m52.5 182c12.407 0 22.5-10.094 22.5-22.5s-10.093-22.5-22.5-22.5-22.5 10.094-22.5 22.5 10.093 22.5 22.5 22.5zm0-30c4.136 0 7.5 3.364 7.5 7.5s-3.364 7.5-7.5 7.5-7.5-3.364-7.5-7.5 3.364-7.5 7.5-7.5z"/><path d="m52.5 242c12.407 0 22.5-10.094 22.5-22.5s-10.093-22.5-22.5-22.5-22.5 10.094-22.5 22.5 10.093 22.5 22.5 22.5zm0-30c4.136 0 7.5 3.364 7.5 7.5s-3.364 7.5-7.5 7.5-7.5-3.364-7.5-7.5 3.364-7.5 7.5-7.5z"/><path d="m52.5 302c12.407 0 22.5-10.094 22.5-22.5s-10.093-22.5-22.5-22.5-22.5 10.094-22.5 22.5 10.093 22.5 22.5 22.5zm0-30c4.136 0 7.5 3.364 7.5 7.5s-3.364 7.5-7.5 7.5-7.5-3.364-7.5-7.5 3.364-7.5 7.5-7.5z"/><path d="m459.5 182c12.407 0 22.5-10.094 22.5-22.5s-10.093-22.5-22.5-22.5-22.5 10.094-22.5 22.5 10.093 22.5 22.5 22.5zm0-30c4.136 0 7.5 3.364 7.5 7.5s-3.364 7.5-7.5 7.5-7.5-3.364-7.5-7.5 3.364-7.5 7.5-7.5z"/><path d="m459.5 242c12.407 0 22.5-10.094 22.5-22.5s-10.093-22.5-22.5-22.5-22.5 10.094-22.5 22.5 10.093 22.5 22.5 22.5zm0-30c4.136 0 7.5 3.364 7.5 7.5s-3.364 7.5-7.5 7.5-7.5-3.364-7.5-7.5 3.364-7.5 7.5-7.5z"/><path d="m459.5 302c12.407 0 22.5-10.094 22.5-22.5s-10.093-22.5-22.5-22.5-22.5 10.094-22.5 22.5 10.093 22.5 22.5 22.5zm0-30c4.136 0 7.5 3.364 7.5 7.5s-3.364 7.5-7.5 7.5-7.5-3.364-7.5-7.5 3.364-7.5 7.5-7.5z"/><path d="m459.5 107c-28.949 0-52.5 23.552-52.5 52.5v52.5h-38.5v-112.5c0-12.406-10.093-22.5-22.5-22.5s-22.5 10.094-22.5 22.5v7.5h-15.978l-9.93-70.832c-2.89-20.619-20.771-36.168-41.592-36.168s-38.702 15.549-41.592 36.168l-9.93 70.832h-15.978v-7.5c0-12.406-10.093-22.5-22.5-22.5s-22.5 10.094-22.5 22.5v112.5h-38.5v-52.5c0-28.948-23.551-52.5-52.5-52.5s-52.5 23.552-52.5 52.5v345c0 4.143 3.358 7.5 7.5 7.5h497c4.142 0 7.5-3.357 7.5-7.5v-345c0-28.948-23.551-52.5-52.5-52.5zm0 15c20.678 0 37.5 16.822 37.5 37.5v217.5h-75v-217.5c0-20.678 16.822-37.5 37.5-37.5zm-52.5 105v150h-38.5v-150zm-248.5 127.5c0-12.406 10.093-22.5 22.5-22.5s22.5 10.094 22.5 22.5v142.5h-45zm60 67.5h75v15h-75zm45-15h-15v-67.5c0-4.136 3.364-7.5 7.5-7.5s7.5 3.364 7.5 7.5zm-45 45h75v15h-75zm0 30h75v15h-75zm135 15h-45v-142.5c0-12.406 10.093-22.5 22.5-22.5s22.5 10.094 22.5 22.5zm-187.5-405c4.136 0 7.5 3.364 7.5 7.5v15c0 4.143 3.358 7.5 7.5 7.5h30c3.74 0 6.908-2.755 7.427-6.459l10.835-77.291c1.859-13.255 13.353-23.25 26.738-23.25s24.879 9.995 26.738 23.25l10.835 77.291c.519 3.704 3.687 6.459 7.427 6.459h30c4.142 0 7.5-3.357 7.5-7.5v-15c0-4.136 3.364-7.5 7.5-7.5s7.5 3.364 7.5 7.5v225.02c-6.272-4.719-14.064-7.52-22.5-7.52-20.678 0-37.5 16.822-37.5 37.5v52.5h-15v-67.5c0-12.406-10.093-22.5-22.5-22.5s-22.5 10.094-22.5 22.5v67.5h-15v-52.5c0-20.678-16.822-37.5-37.5-37.5-8.436 0-16.228 2.801-22.5 7.52v-225.02c0-4.136 3.364-7.5 7.5-7.5zm-113.5 30c20.678 0 37.5 16.822 37.5 37.5v60c0 4.143 3.358 7.5 7.5 7.5h46v150h-38.5v-127.5c0-4.143-3.358-7.5-7.5-7.5s-7.5 3.357-7.5 7.5v127.5h-75v-217.5c0-20.678 16.822-37.5 37.5-37.5zm-37.5 270h128.5v105h-128.5zm353.5 105v-105h128.5v105z"/></g></svg>