<svg id="Capa_1" enable-background="new 0 0 512 512" height="20" viewBox="0 0 512 512" width="20" xmlns="http://www.w3.org/2000/svg"><g><path d="m404.81 20.604v39.198h-297.62v-39.198c0-11.384 9.231-20.604 20.604-20.604h256.412c11.373 0 20.604 9.22 20.604 20.604z" fill="#756f6f"/><path d="m107.19 452.198h297.62v39.198c0 11.384-9.23 20.604-20.604 20.604h-256.412c-11.373 0-20.604-9.22-20.604-20.604z" fill="#756f6f"/><path d="m404.81 20.604v39.198h-35.459v-39.198c0-11.384-9.22-20.604-20.604-20.604h35.459c11.373 0 20.604 9.22 20.604 20.604z" fill="#5b5555"/><path d="m369.351 452.198h35.459v39.198c0 11.384-9.23 20.604-20.604 20.604h-35.459c11.384 0 20.604-9.22 20.604-20.604z" fill="#5b5555"/><path d="m404.81 57.36v241.3l-18.1 9.055c-.608.299-1.051.886-1.164 1.556l-5.481 30.298c-1.267 6.954-6.531 12.475-13.423 14.041l-14.938 3.42c-.649.144-1.185.577-1.473 1.174l-7.448 15.319c-.185.371-.258.773-.216 1.174l2.184 20.913c.628 6.006-1.813 11.837-6.521 15.607-4.708 3.771-10.941 4.863-16.658 2.926l-42.68-14.423c-.299-.103-.628-.134-.937-.093l-17.616 2.009c-1.174.134-2.019 1.154-1.926 2.328l4.183 55.959h-155.406v-334.797l56.753 27.114c8.612 4.183 12.321 14.268 8.478 22.994l-20.48 46.471c-.206.453-.247.979-.103 1.463l8.231 29.484c.659 2.359.814 4.79.474 7.222l-5.439 38.209c-.082.536.041 1.071.34 1.514l12.743 19.192c.556.845 1.36.979 1.792.979.474.01 1.247-.124 1.813-.958 3.626-5.326 9.632-8.602 16.071-8.757l17.76-.422c5.069-.103 9.941 1.937 13.382 5.656l10.467 11.342c.453.484 1.092.731 1.751.69l23.354-1.556c1.205-.072 1.71-.845 1.916-1.483.216-.629.268-1.545-.639-2.339l-13.897-11.94c-4.43-3.812-6.676-9.55-6.016-15.36l.773-6.83c.773-6.789 5.429-12.651 11.857-14.948l71.711-25.548c.927-.33 1.576-1.133 1.7-2.112l1.01-8.314c.113-.979-.33-1.658-.598-1.978-.278-.33-.886-.876-1.865-.907l-77.645-2.905c-4.749-.175-9.158-2.174-12.424-5.625l-14.979-15.834c-4.904-5.182-6.202-12.733-3.317-19.254l11.373-25.672c2.194-4.976 6.665-8.715 11.96-9.993l10.292-2.503c2.761-.67 5.676-.659 8.437.031l42.268 10.559c.742.185 1.545-.041 2.081-.598l9.581-9.818c.536-.546.742-1.308.556-2.04l-3.915-15.854c-1.823-7.376 1.257-15.061 7.685-19.131z" fill="#31a7fb"/><path d="m404.807 66.074-88.193 55.825c-3.602 2.28-5.34 6.608-4.317 10.746l3.922 15.853c.823 3.327-.133 6.842-2.526 9.295l-9.584 9.82c-2.46 2.52-6.072 3.545-9.489 2.691l-42.262-10.562c-1.555-.389-3.181-.394-4.739-.016l-10.3 2.502c-2.99.726-5.472 2.801-6.718 5.614l-11.368 25.674c-1.616 3.651-.883 7.915 1.861 10.815l14.979 15.834c1.854 1.96 4.403 3.114 7.099 3.215l77.646 2.904c6.025.225 10.569 5.554 9.841 11.539l-1.011 8.315c-.471 3.875-3.092 7.151-6.769 8.461l-71.709 25.545c-3.705 1.32-6.335 4.634-6.779 8.541l-.777 6.833c-.37 3.259.897 6.489 3.384 8.628l13.889 11.942c6.722 5.779 3.047 16.802-5.798 17.391l-23.356 1.556c-2.987.199-5.903-.964-7.934-3.163l-10.471-11.339c-1.931-2.091-4.67-3.251-7.516-3.182l-17.761.431c-3.963.096-7.636 2.098-9.865 5.376-3.957 5.819-12.549 5.771-16.441-.092l-12.742-19.198c-1.343-2.023-1.896-4.469-1.553-6.873l5.442-38.206c.193-1.357.103-2.74-.266-4.06l-8.233-29.485c-.616-2.208-.448-4.561.477-6.658l20.482-46.464c2.15-4.878.054-10.583-4.744-12.907l-53.414-25.88v-81.263h297.614v14.002z" fill="#27e19d"/><path d="m404.81 57.36v241.3l-18.1 9.055c-.608.299-1.051.886-1.164 1.556l-5.481 30.298c-1.092 6.006-5.172 10.951-10.714 13.186v-273.112z" fill="#1c96f9"/><path d="m404.807 290.018v169.911h-149.985l-4.117-55.394c-.394-5.302 3.469-9.969 8.751-10.573l17.619-2.015c1.448-.166 2.915-.009 4.296.457l42.68 14.423c6.837 2.31 13.77-3.233 13.02-10.41l-2.183-20.911c-.192-1.84.135-3.696.944-5.36l7.453-15.324c1.312-2.697 3.775-4.654 6.698-5.323l14.94-3.417c3.866-.884 6.831-3.989 7.537-7.891l5.481-30.294c.555-3.069 2.524-5.698 5.314-7.093z" fill="#27e19d"/><path d="m404.81 290.017v169.908h-35.459v-116.154c1.597-1.442 2.709-3.379 3.111-5.584l5.48-30.287c.556-3.07 2.524-5.697 5.305-7.098z" fill="#26d192"/><path d="m404.81 52.076v14l-35.459 22.447v-36.447z" fill="#26d192"/><g><path d="m267.772 35.062h-23.544c-4.267 0-7.726-3.459-7.726-7.726s3.459-7.726 7.726-7.726h23.544c4.268 0 7.726 3.459 7.726 7.726s-3.459 7.726-7.726 7.726z" fill="#5b5555"/></g><g><path d="m267.772 492.386h-23.544c-4.267 0-7.726-3.459-7.726-7.726s3.459-7.726 7.726-7.726h23.544c4.268 0 7.726 3.459 7.726 7.726s-3.459 7.726-7.726 7.726z" fill="#5b5555"/></g><g id="XMLID_231_"><path d="m301.249 35.063c-.013 0-.025 0-.037 0l-.107-.001c-4.268-.02-7.71-3.495-7.69-7.763.02-4.255 3.476-7.69 7.725-7.69h.037l.107.001c4.268.02 7.71 3.495 7.69 7.763-.02 4.255-3.476 7.69-7.725 7.69z" fill="#5b5555"/></g><g id="XMLID_232_"><path d="m324.839 35.063c-.013 0-.025 0-.038 0l-.106-.001c-4.267-.021-7.709-3.496-7.689-7.763.02-4.255 3.476-7.69 7.725-7.69h.038l.106.001c4.267.021 7.709 3.496 7.689 7.763-.02 4.255-3.475 7.69-7.725 7.69z" fill="#5b5555"/></g><g><path d="m363.377 183.267c17.881-17.926 17.869-46.953-.04-64.862-16.864-16.865-43.587-17.86-61.616-2.987-1.883 1.554-4.611 1.554-6.494 0-18.029-14.872-44.752-13.877-61.616 2.987-17.909 17.909-17.922 46.936-.04 64.862l58.676 58.678c3.44 3.44 9.016 3.44 12.456 0z" fill="#fb4a59"/><path d="m363.381 183.265-58.676 58.677c-3.444 3.444-9.019 3.444-12.463 0l-11.644-11.644 55.999-55.999c17.879-17.924 17.871-46.954-.044-64.859-1.638-1.647-3.373-3.135-5.188-4.483 11.582.123 23.138 4.606 31.972 13.449 17.906 17.906 17.923 46.936.044 64.859z" fill="#f82f40"/></g><path d="m320.819 226.284-52.498-1.963v49.713l54.558-19.436c3.677-1.31 6.298-4.586 6.769-8.461l1.011-8.315c.729-5.985-3.816-11.313-9.84-11.538z" fill="#27e19d"/><g><g><path d="m177.533 401.707c-1.977 0-3.955-.755-5.463-2.263l-7.576-7.576c-3.018-3.017-3.018-7.909 0-10.927 3.017-3.017 7.909-3.017 10.927 0l2.113 2.113 2.113-2.113c3.017-3.017 7.909-3.017 10.927 0s3.018 7.909 0 10.927l-7.576 7.576c-1.511 1.508-3.488 2.263-5.465 2.263z" fill="#8dcafc"/></g></g><g><g><path d="m204.798 265.799c-1.977 0-3.955-.755-5.463-2.263l-7.576-7.576c-3.018-3.017-3.018-7.909 0-10.927 3.017-3.017 7.909-3.017 10.927 0l2.113 2.113 2.113-2.113c3.017-3.017 7.909-3.017 10.927 0s3.018 7.909 0 10.927l-7.576 7.576c-1.51 1.509-3.487 2.263-5.465 2.263z" fill="#26d192"/></g></g><g><g><path d="m320.165 316.681c-1.977 0-3.955-.755-5.464-2.263l-7.576-7.576c-3.017-3.017-3.017-7.909 0-10.927 3.018-3.017 7.909-3.017 10.928 0l2.113 2.113 2.113-2.113c3.018-3.017 7.909-3.017 10.928 0 3.017 3.017 3.017 7.909 0 10.927l-7.576 7.576c-1.511 1.508-3.489 2.263-5.466 2.263z" fill="#1c96f9"/></g></g><g><g><path d="m174.355 109.065c-1.977 0-3.955-.755-5.463-2.263l-7.576-7.576c-3.018-3.017-3.018-7.909 0-10.927 3.017-3.017 7.909-3.017 10.927 0l2.113 2.113 2.113-2.113c3.017-3.017 7.909-3.017 10.927 0s3.018 7.909 0 10.927l-7.576 7.576c-1.51 1.508-3.487 2.263-5.465 2.263z" fill="#1ec186"/></g></g></g></svg>