<svg id="Capa_1" enable-background="new 0 0 512 512" height="20" viewBox="0 0 512 512" width="20" xmlns="http://www.w3.org/2000/svg"><g><g><circle cx="256" cy="256" fill="#31a7fb" r="242.199"/><path d="m431.316 423.095c-11.723 12.311-24.735 23.375-38.817 32.997l-136.499-143.484-136.499 143.484c-14.082-9.622-27.094-20.686-38.817-32.997l175.316-175.316z" fill="#1c96f9"/><path d="m498.196 256c0 133.759-108.437 242.196-242.196 242.196-20.758 0-40.908-2.617-60.142-7.531 128.072-1.782 231.348-106.171 231.348-234.665s-103.276-232.883-231.348-234.665c19.234-4.914 39.384-7.531 60.142-7.531 133.759 0 242.196 108.437 242.196 242.196z" fill="#1c96f9"/><path d="m196.22 178.394-7.835 43.908c-.168.944-.204 1.907-.106 2.861l13.417 130.75c.327 3.185-.846 6.341-3.174 8.54l-14.933 14.107c-3.734 3.527-9.496 3.765-13.508.557l-54.337-43.444c-3.094-2.474-4.496-6.503-3.605-10.363l12.966-56.182c.245-1.061.656-2.076 1.219-3.007l15.727-26.051c1.282-2.124 1.755-4.639 1.331-7.083l-3.718-21.459c-1.282-7.4-9.798-10.985-15.987-6.73l-10.869 7.472c-1.396.96-3.007 1.56-4.691 1.749l-16.426 1.837c-3.837.429-7.111 2.967-8.484 6.575l-15.555 40.894c-1.786 4.694-6.696 7.417-11.623 6.444l-42.164-8.32c-.041-1.813-.062-3.626-.062-5.45.001-133.758 108.438-242.195 242.197-242.195v106.304l-56.644 52.542c-1.642 1.523-2.742 3.539-3.136 5.744z" fill="#27e19d"/><path d="m197.883 318.757c-15.211 15.375-30.468 30.705-45.749 46.011l17.948 14.35c4.012 3.208 9.774 2.97 13.508-.557l14.933-14.107c2.328-2.199 3.501-5.355 3.174-8.54z" fill="#26d192"/><path d="m498.196 256c0 76.687-35.644 145.049-91.264 189.43l-64.5-32.498c-1.626-.819-3.006-2.055-3.999-3.581l-12.35-18.978c-1.941-2.983-2.205-6.757-.698-9.981l20.955-44.83c.675-1.444 1.676-2.711 2.923-3.703l39.978-31.769c3.555-2.825 4.841-7.645 3.166-11.865l-5.337-13.45c-.911-2.296-2.617-4.188-4.806-5.332l-24.429-12.759c-.869-.454-1.669-1.03-2.375-1.71l-21.851-21.035c-2.997-2.885-3.965-7.29-2.453-11.166l7.438-19.065c.875-2.244 2.509-4.11 4.617-5.274l36.302-20.045c3.707-2.047 5.784-6.154 5.235-10.353l-3.28-25.111c-.608-4.657-4.29-8.313-8.951-8.89l-11.201-1.385c-3.036-.375-5.749-2.081-7.403-4.655l-17.005-26.464c-1.621-2.523-2.063-5.628-1.208-8.503l17.507-58.92c85.362 37.448 144.989 122.706 144.989 221.892z" fill="#27e19d"/><path d="m431.316 423.095c-7.603 7.984-15.751 15.442-24.384 22.334l-45.647-23.004-36.84-38.425c.083-1.226.402-2.452.938-3.606l20.14-43.092z" fill="#26d192"/><path d="m498.196 256c0 76.687-35.644 145.049-91.264 189.43l-47.842-24.106c42.103-42.423 68.115-100.834 68.115-165.323 0-73.174-33.491-138.528-85.979-181.569l11.981-40.321c85.362 37.445 144.989 122.703 144.989 221.889z" fill="#26d192"/><path d="m437.019 437.02c48.352-48.352 74.981-112.64 74.981-181.02s-26.629-132.668-74.981-181.019c-48.351-48.352-112.639-74.981-181.019-74.981s-132.667 26.629-181.02 74.981c-48.351 48.352-74.98 112.639-74.98 181.019s26.629 132.667 74.981 181.02c48.352 48.351 112.639 74.98 181.019 74.98s132.668-26.629 181.019-74.98zm-163.179-391.21c0-5.116 4.48-9.078 9.558-8.452 24.177 2.982 47.469 9.886 69.229 20.52 21.843 10.674 41.748 24.917 59.162 42.331 41.314 41.313 64.481 97.17 64.531 155.596.039 46.016-13.885 90.019-40.26 127.239-3.05 4.304-9.239 4.828-12.969 1.098l-146.757-146.755c-1.597-1.597-2.494-3.763-2.494-6.021zm14.537 254.079 111.176 111.175c3.508 3.508 3.286 9.261-.482 12.489-32.854 28.14-72.853 45.806-115.673 51.088-5.078.626-9.558-3.335-9.558-8.452v-160.278c0-7.587 9.173-11.386 14.537-6.022zm-50.217 166.301c0 5.116-4.48 9.078-9.558 8.452-42.82-5.282-82.819-22.947-115.673-51.088-3.768-3.228-3.99-8.98-.482-12.489l111.176-111.175c5.365-5.364 14.537-1.565 14.537 6.021zm-2.494-228.803-146.756 146.756c-3.73 3.73-9.919 3.206-12.969-1.098-26.339-37.168-40.261-81.099-40.261-127.045 0-58.85 22.917-114.177 64.53-155.79 17.415-17.415 37.32-31.657 59.163-42.332 21.76-10.634 45.051-17.538 69.229-20.52 5.078-.626 9.558 3.335 9.558 8.452v185.555c0 2.259-.897 4.425-2.494 6.022z" fill="#fee265"/><path d="m512 256c0 68.383-26.63 132.667-74.977 181.023-48.356 48.347-112.64 74.977-181.023 74.977-5.614 0-11.198-.175-16.74-.536 62.089-3.977 119.892-30.061 164.283-74.441 48.346-48.357 74.977-112.64 74.977-181.023s-26.63-132.667-74.977-181.023c-44.391-44.381-102.194-70.465-164.283-74.441 5.542-.361 11.126-.536 16.74-.536 68.383 0 132.667 26.63 181.023 74.977 48.347 48.356 74.977 112.64 74.977 181.023z" fill="#fdd330"/></g><g><g><path d="m163.525 142.092c-2.049 0-4.015-.814-5.464-2.264l-5.696-5.696c-3.017-3.017-3.017-7.909.001-10.927 3.018-3.016 7.909-3.017 10.927.001l.232.231.232-.231c3.017-3.018 7.909-3.017 10.927-.001 3.017 3.017 3.018 7.909.001 10.927l-5.696 5.696c-1.449 1.45-3.415 2.264-5.464 2.264z" fill="#26d192"/></g></g><g><g><path d="m397.333 239.948c-1.977 0-3.954-.755-5.463-2.263l-5.696-5.695c-3.018-3.017-3.018-7.909-.001-10.927s7.909-3.019 10.927-.001l.233.233.232-.233c3.018-3.016 7.909-3.017 10.927.001 3.017 3.017 3.017 7.909-.001 10.927l-5.696 5.695c-1.507 1.508-3.485 2.263-5.462 2.263z" fill="#26d192"/></g></g><g><g><path d="m129.207 167.267c-1.977 0-3.954-.755-5.463-2.263l-5.696-5.695c-3.017-3.017-3.018-7.909-.001-10.927s7.909-3.017 10.927-.001l.232.232.232-.232c3.017-3.016 7.909-3.017 10.927.001 3.017 3.017 3.017 7.909-.001 10.927l-5.696 5.695c-1.507 1.508-3.484 2.263-5.461 2.263z" fill="#26d192"/></g></g></g></svg>